<?xml version="1.0" encoding="utf-8"?> <!-- Generator: IcoMoon.io --> <!DOCTYPE svg PUBLIC "-//W3C//DTD SVG 1.1//EN" "http://www.w3.org/Graphics/SVG/1.1/DTD/svg11.dtd"> <svg width="32" height="32" viewBox="0 0 32 32" data-licenselink="http://creativecommons.org/licenses/by-sa/3.0/" data-license="CC BY-SA 3.0" data-author="Stephen Hutchings" xmlns="http://www.w3.org/2000/svg" xmlns:xlink="http://www.w3.org/1999/xlink" fill="#000000"><g><path d="M 16,1.333c-8.087,0-14.667,6.58-14.667,14.667s 6.58,14.667, 14.667,14.667s 14.667-6.58, 14.667-14.667S 24.087,1.333, 16,1.333z M 25.167,16c0,1.525-0.411,2.941-1.071,4.207L 11.792,7.904 C 13.059,7.244, 14.475,6.833, 16,6.833C 21.054,6.833, 25.167,10.945, 25.167,16z M 6.833,16c0-1.525, 0.411-2.941, 1.071-4.207l 12.303,12.303 C 18.941,24.756, 17.525,25.167, 16,25.167C 10.945,25.167, 6.833,21.054, 6.833,16z"></path></g></svg>