<?xml version="1.0" encoding="utf-8"?> <!-- Generator: IcoMoon.io --> <!DOCTYPE svg PUBLIC "-//W3C//DTD SVG 1.1//EN" "http://www.w3.org/Graphics/SVG/1.1/DTD/svg11.dtd"> <svg fill="#000000" xmlns:xlink="http://www.w3.org/1999/xlink" xmlns="http://www.w3.org/2000/svg" viewBox="0 0 32 32" height="32" width="32"><g><path d="M 8.949,18.851l-2.954,7.585l 7.456-3.087L 8.949,18.851z M 30.592,2.646 L 29.646,1.7c-1.042-1.045-2.74-1.045-3.782,0l-1.891,1.891l 4.731,4.731l 1.891-1.891C 31.637,5.386, 31.637,3.691, 30.592,2.646z M 9.099,18.462l 0.678-0.678l 4.731,4.731l 13.247-13.247l-4.731-4.731l 0.946-0.946L 9.103,18.462L 9.099,18.462z M 25.44,29.283 L 2.66,29.292L 2.662,6.51L 18.611,6.506L 21.113,3.856L 1.303,3.856 c-0.739,0-1.338,0.599-1.338,1.338l0,25.421 c0,0.739, 0.599,1.338, 1.338,1.338l 25.421,0 c 0.739,0, 1.338-0.599, 1.338-1.338L 28.062,11.804 l-2.697,2.644L 25.44,29.283z"></path></g></svg>