<?xml version="1.0" encoding="utf-8"?> <!-- Generator: IcoMoon.io --> <!DOCTYPE svg PUBLIC "-//W3C//DTD SVG 1.1//EN" "http://www.w3.org/Graphics/SVG/1.1/DTD/svg11.dtd"> <svg fill="#000000" xmlns:xlink="http://www.w3.org/1999/xlink" xmlns="http://www.w3.org/2000/svg" width="32" height="32" viewBox="0 0 32 32"><g><path d="M 4.259,23.467c-2.349,0-4.259,1.917-4.259,4.253c0,2.349, 1.909,4.243, 4.259,4.243 c 2.357,0, 4.267-1.896, 4.267-4.243C 8.525,25.384, 6.619,23.467, 4.259,23.467zM 0.005,10.872l0,6.133 c 3.992,0, 7.749,1.563, 10.576,4.392c 2.824,2.821, 4.384,6.595, 4.384,10.603l 6.16,0 C 21.125,20.349, 11.648,10.872, 0.005,10.872zM 0.013,0l0,6.136 c 14.243,0, 25.837,11.605, 25.837,25.864L 32,32 C 32,14.36, 17.648,0, 0.013,0z"></path></g></svg>