<?xml version="1.0" encoding="utf-8"?> <!-- Generator: IcoMoon.io --> <!DOCTYPE svg PUBLIC "-//W3C//DTD SVG 1.1//EN" "http://www.w3.org/Graphics/SVG/1.1/DTD/svg11.dtd"> <svg fill="#000000" xmlns:xlink="http://www.w3.org/1999/xlink" xmlns="http://www.w3.org/2000/svg" viewBox="0 0 32 32" height="32" width="32"><g><path d="M 18.667,4L 18.667,2.667 c0-1.472-1.195-2.667-2.667-2.667L 10.667,0 C 9.195,0, 8,1.195, 8,2.667l0,1.333 L 2.667,4 l0,4 L 1.333,8 l0,9.333 l 2.667,0 L 4,10.667 l 24,0 l0,16 L 13.333,26.667 l0,2.667 l 17.333,0 L 30.667,4 L 18.667,4 z M 28,8L 5.333,8 L 5.333,6.667 l 5.333,0 L 10.667,2.667 l 5.333,0 l0,4 l 12,0 L 28,8 zM 8,18.667L 4,18.667L 4,22.667L0,22.667L0,26.667L 4,26.667L 4,30.667L 8,30.667L 8,26.667L 12,26.667L 12,22.667L 8,22.667 z"></path></g></svg>