<?xml version="1.0" encoding="utf-8"?> <!-- Generator: IcoMoon.io --> <!DOCTYPE svg PUBLIC "-//W3C//DTD SVG 1.1//EN" "http://www.w3.org/Graphics/SVG/1.1/DTD/svg11.dtd"> <svg fill="#000000" xmlns:xlink="http://www.w3.org/1999/xlink" xmlns="http://www.w3.org/2000/svg" viewBox="0 0 32.06999969482422 32.02499771118164" height="32.02499771118164" width="32.06999969482422"><g><path d="M 31.397,12.408L 19.587,0.597c-0.451-0.453-1.056-0.627-1.648-0.579l-3.899,0 c-0.592-0.048-1.197,0.125-1.648,0.579l-2.397,2.397L 9.997,0.019 L 4,0.019 l0,8.971 L 0.581,12.408 c-0.453,0.453-0.627,1.056-0.579,1.648l0,3.947 c0,1.104, 0.893,2, 2,2l 2,0 l0,9.992 c0,1.104, 0.893,2, 2,2L 25.981,31.989 c 1.104,0, 2-0.896, 2-2L 27.979,20 l 2,0 c 1.104,0, 2-0.896, 2-2l0-3.947 C 32.024,13.464, 31.851,12.861, 31.397,12.408z M 27.979,16.003l-3.997,0 l0,11.989 l-3.997,0 L 19.987,20 L 11.992,20 l0,7.992 l-3.997,0 L 7.997,16.003 L 4,16.003 l0-1.109 L 14.88,4.016l 2.216,0 l 10.88,10.88L 27.979,16.003 z"></path></g></svg>