<?xml version="1.0" encoding="utf-8"?> <!-- Generator: IcoMoon.io --> <!DOCTYPE svg PUBLIC "-//W3C//DTD SVG 1.1//EN" "http://www.w3.org/Graphics/SVG/1.1/DTD/svg11.dtd"> <svg fill="#000000" xmlns:xlink="http://www.w3.org/1999/xlink" xmlns="http://www.w3.org/2000/svg" viewBox="0 0 32 32" height="32" width="32"><g><path d="M 0.016,31.968l0-32 l 31.968,0 l0,32 l-31.968,0 zM 29.987,1.965l-27.973,0 l0,24.008 l 27.973,0 l0-24.008 zM 8.008,3.965q 1.653,0 2.827,1.171t 1.171,2.827t-1.171,2.827t-2.827,1.171t-2.827-1.157t-1.171-2.811l0-0.032 q0-1.653 1.171-2.827t 2.827-1.171zM 11.475,16.515l 7.429,7.461l-14.893,0 l0-2.904 l 4.557-4.557q 0.563-0.563 1.451-0.563t 1.451,0.563zM 21.557,10.52q 0.563-0.595 1.451-0.595t 1.451,0.595 l 3.528,3.528l0,9.928 l-6.371,0 q0-0.032 -0.048-0.109t-0.077-0.141l-6.589-6.557z"></path></g></svg>