<?xml version="1.0" encoding="utf-8"?> <!-- Generator: IcoMoon.io --> <!DOCTYPE svg PUBLIC "-//W3C//DTD SVG 1.1//EN" "http://www.w3.org/Graphics/SVG/1.1/DTD/svg11.dtd"> <svg width="32" height="32" viewBox="0 0 32 32" data-licenselink="http://creativecommons.org/licenses/by-sa/3.0/" data-license="CC BY-SA 3.0" data-author="Stephen Hutchings" xmlns="http://www.w3.org/2000/svg" xmlns:xlink="http://www.w3.org/1999/xlink" fill="#000000"><g><path d="M 26.222,12.267l-2.045,0 L 24.178,8.178 c0-4.51-3.668-8.178-8.178-8.178S 7.822,3.668, 7.822,8.178l0,4.089 L 5.778,12.267 c-1.125,0-2.045,0.92-2.045,2.045l0,14.311 c0,1.125, 0.92,2.045, 2.045,2.045l 20.445,0 c 1.125,0, 2.045-0.92, 2.045-2.045l0-14.311 C 28.267,13.187, 27.347,12.267, 26.222,12.267z M 11.911,8.178c0-2.255, 1.834-4.089, 4.089-4.089s 4.089,1.834, 4.089,4.089l0,4.089 l-8.178,0 L 11.911,8.178 z"></path></g></svg>