<?xml version="1.0" encoding="utf-8"?> <!-- Generator: IcoMoon.io --> <!DOCTYPE svg PUBLIC "-//W3C//DTD SVG 1.1//EN" "http://www.w3.org/Graphics/SVG/1.1/DTD/svg11.dtd"> <svg fill="#000000" xmlns:xlink="http://www.w3.org/1999/xlink" xmlns="http://www.w3.org/2000/svg" width="32" height="32" viewBox="0 0 32 32"><g><path d="M 29,4L 3,4 C 1.344,4,0,5.344,0,7l0,18 c0,1.656, 1.344,3, 3,3l 26,0 c 1.656,0, 3-1.344, 3-3L 32,7 C 32,5.344, 30.656,4, 29,4z M 2.741,25.989 L 2.011,25.259l 8.248-8.248l 0.731,0.731L 2.741,25.989z M 29.259,25.989l-8.248-8.248l 0.731-0.731l 8.248,8.248L 29.259,25.989z M 17,19.325 L 17,20 l-2,0 l0-0.675 L 2.003,7.275l 1.272-1.272L 16,17.8L 28.725,6.003l 1.272,1.272L 17,19.325z"></path></g></svg>