<?xml version="1.0" encoding="utf-8"?> <!-- Generator: IcoMoon.io --> <!DOCTYPE svg PUBLIC "-//W3C//DTD SVG 1.1//EN" "http://www.w3.org/Graphics/SVG/1.1/DTD/svg11.dtd"> <svg fill="#000000" version="1.1" id="图层_1" xmlns="http://www.w3.org/2000/svg" xmlns:xlink="http://www.w3.org/1999/xlink" x="0px" y="0px" width="32" height="32" viewBox="0 0 32 32" enable-background="new 0 0 16 16" xml:space="preserve"> <g><path d="M 19.692,17.332c-0.14-0.208-0.376-0.334-0.626-0.334L 18.316,16.998 c-0.416,0-0.75,0.336-0.75,0.75l0,4.5 c0,0.414, 0.336,0.75, 0.75,0.75l 3,0 c 0.414,0, 0.75-0.336, 0.75-0.75l0-1.126 c0-0.148-0.042-0.294-0.126-0.416L 19.692,17.332z M 21.316,22.248l-3,0 l0-4.5 l 0.75,0 l 2.25,3.376L 21.316,22.248 z M 24.688,20.25l-3-4.5c-0.418-0.628-1.118-1.002-1.872-1.002l-3,0 l0-1.5 c0-1.24-1.010-2.25-2.25-2.25L 3.316,10.998 c-1.24,0-2.25,1.010-2.25,2.25l0,8.25 c0,1.24, 1.010,2.25, 2.25,2.25l0,0l0,2.25 c0,1.24, 1.010,2.25, 2.25,2.25l 0.856,0 c 0.336,1.29, 1.5,2.25, 2.894,2.25c 1.392,0, 2.558-0.96, 2.892-2.25l 3.962,0 c 0.338,1.29, 1.498,2.25, 2.894,2.25c 1.394,0, 2.558-0.96, 2.894-2.25l 0.86,0 c 1.238,0, 2.25-1.010, 2.25-2.25l0-4.5 C 25.066,21.052, 24.938,20.622, 24.688,20.25z M 3.316,22.248c-0.414,0-0.75-0.336-0.75-0.75L 2.566,13.248 c0-0.414, 0.336-0.75, 0.75-0.75l 11.25,0 c 0.414,0, 0.75,0.336, 0.75,0.75l0,1.5 l0,1.5 l0,5.25 c0,0.414-0.336,0.75-0.75,0.75L 3.316,22.248 z M 9.316,28.998c-0.828,0-1.5-0.672-1.5-1.5s 0.672-1.5, 1.5-1.5s 1.5,0.672, 1.5,1.5S 10.144,28.998, 9.316,28.998z M 19.066,28.998c-0.828,0-1.5-0.672-1.5-1.5s 0.672-1.5, 1.5-1.5s 1.5,0.672, 1.5,1.5S 19.894,28.998, 19.066,28.998z M 23.566,25.998c0,0.414-0.336,0.75-0.75,0.75l-0.86,0 c-0.336-1.29-1.5-2.25-2.89-2.25c-1.396,0-2.56,0.96-2.896,2.25L 12.208,26.748 c-0.336-1.29-1.5-2.25-2.892-2.25c-1.394,0-2.56,0.96-2.894,2.25L 5.566,26.748 c-0.414,0-0.75-0.336-0.75-0.75l0-2.25 l 9.75,0 c 1.24,0, 2.25-1.010, 2.25-2.25L 16.816,16.248 l 3,0 c 0.25,0, 0.484,0.126, 0.626,0.334l 3,4.5c 0.082,0.124, 0.126,0.268, 0.126,0.416L 23.568,25.998 z M 27.116,11.56c-0.256-0.042-0.262-0.738-0.262-0.738s 0.754-0.738, 0.918-1.734 c 0.442,0, 0.712-1.056, 0.272-1.428c 0.020-0.392, 0.568-3.072-2.212-3.072c-2.78,0-2.23,2.68-2.212,3.072 c-0.442,0.372-0.168,1.428, 0.274,1.428c 0.164,0.994, 0.918,1.734, 0.918,1.734S 24.802,11.52, 24.544,11.56 c-0.826,0.13-3.908,1.478-3.908,2.958l 5.194,0 l 5.196,0 C 31.026,13.040, 27.942,11.692, 27.116,11.56z M 21.828,11.796 c 0.596-0.368, 1.32-0.708, 1.916-0.912c-0.214-0.302-0.452-0.714-0.602-1.206c-0.208-0.17-0.376-0.412-0.486-0.71 c-0.11-0.298-0.15-0.634-0.118-0.944c 0.026-0.22, 0.088-0.428, 0.186-0.608c-0.058-0.63-0.1-1.87, 0.708-2.77 c 0.314-0.35, 0.712-0.602, 1.188-0.754c-0.086-0.876-0.532-1.904-2.254-1.904c-2.782,0-2.23,2.68-2.21,3.074 c-0.442,0.372-0.168,1.428, 0.27,1.428c 0.166,0.994, 0.92,1.732, 0.92,1.732s-0.006,0.7-0.264,0.738 c-0.824,0.13-3.908,1.48-3.908,2.958l 4.458,0 C 21.696,11.88, 21.762,11.838, 21.828,11.796z"></path></g></svg>