<?xml version="1.0" encoding="utf-8"?> <!-- Generator: IcoMoon.io --> <!DOCTYPE svg PUBLIC "-//W3C//DTD SVG 1.1//EN" "http://www.w3.org/Graphics/SVG/1.1/DTD/svg11.dtd"> <svg fill="#000000" xmlns:xlink="http://www.w3.org/1999/xlink" xmlns="http://www.w3.org/2000/svg" width="35.477996826171875" height="36.02300262451172" viewBox="0 0 35.477996826171875 36.02300262451172"><g><path d="M 12.712,25.965c-6.579,5.24-8.352,3.973-5.32-3.808C-1.061,22.595-1.739,20.539, 5.357,16 c-7.096-4.541-6.416-6.592, 2.032-6.16C 4.36,2.061, 6.133,0.792, 12.712,6.035c 2.192-8.045, 4.384-8.045, 6.579,0 c 6.576-5.243, 8.352-3.973, 5.32,3.805c 8.451-0.435, 9.128,1.619, 2.032,6.16c 7.096,4.539, 6.419,6.595-2.032,6.157 c 3.032,7.779, 1.256,9.048-5.32,3.808C 17.096,34.013, 14.904,34.013, 12.712,25.965z"></path></g></svg>