<?xml version="1.0" encoding="utf-8"?> <!-- Generator: IcoMoon.io --> <!DOCTYPE svg PUBLIC "-//W3C//DTD SVG 1.1//EN" "http://www.w3.org/Graphics/SVG/1.1/DTD/svg11.dtd"> <svg width="32" height="32" viewBox="0 0 32 32" data-licenselink="http://creativecommons.org/licenses/by/3.0/" data-license="CC BY 3.0" data-authorlink="http://keyamoon.com/" data-author="Keyamoon" xmlns="http://www.w3.org/2000/svg" xmlns:xlink="http://www.w3.org/1999/xlink" fill="#000000"><g><path d="M 8,2L 24,2L 24,6L 8,6zM 30,8L 2,8 C 0.9,8,0,8.9,0,10l0,10 c0,1.1, 0.9,2, 2,2l 6,0 l0,8 l 16,0 L 24,22 l 6,0 c 1.1,0, 2-0.9, 2-2L 32,10 C 32,8.9, 31.1,8, 30,8z M 22,28L 10,28 L 10,18 l 12,0 L 22,28 z M 30.45,11c0,0.801-0.649,1.45-1.45,1.45 c-0.801,0-1.45-0.649-1.45-1.45s 0.649-1.45, 1.45-1.45C 29.801,9.55, 30.45,10.199, 30.45,11z"></path></g></svg>