<?xml version="1.0" encoding="utf-8"?> <!-- Generator: IcoMoon.io --> <!DOCTYPE svg PUBLIC "-//W3C//DTD SVG 1.1//EN" "http://www.w3.org/Graphics/SVG/1.1/DTD/svg11.dtd"> <svg fill="#000000" xmlns:xlink="http://www.w3.org/1999/xlink" xmlns="http://www.w3.org/2000/svg" viewBox="0 0 32.000999450683594 32" height="32" width="32.000999450683594"><g><path d="M0,29.333c0,1.472, 1.192,2.667, 2.667,2.667l 26.667,0 c 1.472,0, 2.667-1.192, 2.667-2.667L 32,13.333 c0-1.472-1.192-2.667-2.667-2.667l-2,0 L 27.333,2.667 c0-1.472-1.192-2.667-2.667-2.667L 7.333,0 C 5.861,0, 4.667,1.192, 4.667,2.667l0,8 L 2.667,10.667 c-1.472,0-2.667,1.192-2.667,2.667L0,29.333 z M 24,4.8l0,7.733 c0,0.813-0.653,1.467-1.467,1.467L 9.467,14 c-0.813,0-1.467-0.653-1.467-1.467L 8,4.8 C 8,3.987, 8.653,3.333, 9.467,3.333l 13.067,0 C 23.347,3.333, 24,3.987, 24,4.8z M 26,28.667L 6,28.667 c-0.733,0-1.333-0.6-1.333-1.333s 0.6-1.333, 1.333-1.333l 20,0 c 0.733,0, 1.333,0.6, 1.333,1.333S 26.733,28.667, 26,28.667z M 4.667,21.667C 4.667,20.747, 5.413,20, 6.333,20s 1.667,0.747, 1.667,1.667S 7.253,23.333, 6.333,23.333S 4.667,22.587, 4.667,21.667z"></path></g></svg>