<?xml version="1.0" encoding="utf-8"?> <!-- Generator: IcoMoon.io --> <!DOCTYPE svg PUBLIC "-//W3C//DTD SVG 1.1//EN" "http://www.w3.org/Graphics/SVG/1.1/DTD/svg11.dtd"> <svg fill="#000000" xmlns:xlink="http://www.w3.org/1999/xlink" xmlns="http://www.w3.org/2000/svg" width="32" height="32" viewBox="0 0 32 32"><g><path d="M 14,22L 18,22L 18,26L 14,26zM 22,8 C 23.104,8 24,8.896 24,10 L 24,16 L 18,20 L 14,20 L 14,18 L 20,14 L 20,12 L 10,12 L 10,8 L 22,8 ZM 16,3 C 12.528,3 9.264,4.352 6.808,6.808 C 4.352,9.264 3,12.528 3,16 C 3,19.472 4.352,22.736 6.808,25.192 C 9.264,27.648 12.528,29 16,29 C 19.472,29 22.736,27.648 25.192,25.192 C 27.648,22.736 29,19.472 29,16 C 29,12.528 27.648,9.264 25.192,6.808 C 22.736,4.352 19.472,3 16,3 Z M 16,0 L 16,0 C 24.837,0 32,7.163 32,16 C 32,24.837 24.837,32 16,32 C 7.163,32 0,24.837 0,16 C 0,7.163 7.163,0 16,0 Z"></path></g></svg>