<?xml version="1.0" encoding="utf-8"?> <!-- Generator: IcoMoon.io --> <!DOCTYPE svg PUBLIC "-//W3C//DTD SVG 1.1//EN" "http://www.w3.org/Graphics/SVG/1.1/DTD/svg11.dtd"> <svg fill="#000000" xmlns:xlink="http://www.w3.org/1999/xlink" xmlns="http://www.w3.org/2000/svg" viewBox="0 0 32 32" height="32" width="32"><g><path d="M 30,32l-2,0 l0-14 q0-0.813 -0.595-1.405t-1.405-0.595l-20,0 q-0.843,0 -1.421,0.595t-0.579,1.405l0,14 l-2,0 q-0.813,0 -1.405-0.595t-0.595-1.405l0-28 q0-0.813 0.595-1.405t 1.405-0.595l 2,0 l 20,0 l 4,0 l 4,4l0,26 q0,0.813 -0.595,1.405t-1.405,0.595zM 24,2l-20,0 l0,8 q0,0.843 0.579,1.421t 1.421,0.579l 16,0 q 0.813,0 1.405-0.579t 0.595-1.421l0-8 zM 16,4l 4,0 l0,6 l-4,0 l0-6 zM 7,18l 18,0 q 0.405,0 0.704,0.296t 0.296,0.704t-0.296,0.704t-0.704,0.296l-18,0 q-0.405,0 -0.704-0.296t-0.296-0.704t 0.296-0.704t 0.704-0.296zM 7,24l 18,0 q 0.405,0 0.704,0.296t 0.296,0.704t-0.296,0.704t-0.704,0.296l-18,0 q-0.405,0 -0.704-0.296t-0.296-0.704t 0.296-0.704t 0.704-0.296zM 7,30l 18,0 q 0.405,0 0.704,0.296t 0.296,0.704t-0.296,0.704t-0.704,0.296l-18,0 q-0.405,0 -0.704-0.296t-0.296-0.704t 0.296-0.704t 0.704-0.296z"></path></g></svg>