<?xml version="1.0" encoding="utf-8"?> <!-- Generator: IcoMoon.io --> <!DOCTYPE svg PUBLIC "-//W3C//DTD SVG 1.1//EN" "http://www.w3.org/Graphics/SVG/1.1/DTD/svg11.dtd"> <svg fill="#000000" xmlns:xlink="http://www.w3.org/1999/xlink" xmlns="http://www.w3.org/2000/svg" width="32" height="32" viewBox="0 0 32 32"><g><path d="M 27.837,22.16c-1.427-1.424-3.243-2.157-4.936-2.157l-0.909,0 l-1.997-2l 7.989-8 c 1.997-2, 1.997-6,0-8L 16,14.003L 4.019,2c-1.997,2-1.997,6,0,8l 7.989,8 l-1.997,2l-0.909,0 c-1.693,0-3.509,0.736-4.936,2.157c-2.552,2.544-2.896,6.328-0.771,8.448 C 4.331,31.544, 5.589,32, 6.925,32c 1.693,0, 3.509-0.736, 4.936-2.157c 1.675-1.672, 2.397-3.875, 2.096-5.792l 2.043-2.045 l 2.043,2.045c-0.301,1.917, 0.421,4.12, 2.096,5.792C 21.565,31.264, 23.381,32, 25.075,32 c 1.333,0, 2.595-0.456, 3.531-1.389C 30.733,28.488, 30.387,24.707, 27.837,22.16z M 11.032,26.424 c-0.24,0.56-0.595,1.072-1.051,1.528c-0.459,0.456-0.973,0.811-1.536,1.051c-0.504,0.216-1.029,0.331-1.52,0.331 c-0.472,0-1.144-0.107-1.651-0.613c-0.504-0.504-0.611-1.165-0.611-1.635c0-0.485, 0.115-1.005, 0.328-1.507 c 0.24-0.56, 0.595-1.072, 1.051-1.528c 0.456-0.456, 0.973-0.811, 1.536-1.051c 0.504-0.216, 1.029-0.331, 1.52-0.331 c 0.472,0, 1.144,0.107, 1.651,0.613c 0.504,0.504, 0.611,1.165, 0.611,1.635C 11.36,25.403, 11.248,25.923, 11.032,26.424z M 16,20.832c-1.56,0-2.824-1.267-2.824-2.829c0-1.563, 1.264-2.829, 2.824-2.829s 2.824,1.267, 2.824,2.829 C 18.824,19.565, 17.56,20.832, 16,20.832z M 26.728,28.72c-0.507,0.507-1.179,0.613-1.651,0.613 c-0.491,0-1.016-0.115-1.52-0.331c-0.563-0.24-1.077-0.595-1.536-1.051c-0.456-0.456-0.811-0.971-1.051-1.528 c-0.216-0.499-0.328-1.021-0.328-1.507c0-0.467, 0.107-1.131, 0.611-1.635c 0.507-0.507, 1.179-0.613, 1.651-0.613 c 0.491,0, 1.016,0.115, 1.52,0.331c 0.563,0.24, 1.077,0.595, 1.536,1.051c 0.456,0.456, 0.811,0.971, 1.051,1.528 c 0.216,0.499, 0.328,1.021, 0.328,1.507C 27.336,27.555, 27.232,28.216, 26.728,28.72z"></path></g></svg>