<?xml version="1.0" encoding="utf-8"?> <!-- Generator: IcoMoon.io --> <!DOCTYPE svg PUBLIC "-//W3C//DTD SVG 1.1//EN" "http://www.w3.org/Graphics/SVG/1.1/DTD/svg11.dtd"> <svg width="32" height="32" viewBox="0 0 32 32" data-licenselink="http://creativecommons.org/licenses/by-sa/3.0/" data-license="CC BY-SA 3.0" data-authorlink="http://cargocollective.com/davidferreira" data-author="David Ferreira" xmlns="http://www.w3.org/2000/svg" xmlns:xlink="http://www.w3.org/1999/xlink" fill="#000000"><g><path d="M 6.007,7.907L 6.007,8 c 0.213,5.867, 1.307,11.113, 1.807,11.626 c 1.16,1.547, 4.753,4.094, 6.78,5.374c 0.5,0.32, 0.927,0.38, 1.407,0.393c 0.48-0.013, 0.906-0.093, 1.406-0.393 c 2.067-1.22, 5.707-3.827, 6.861-5.374C 24.773,19.113, 25.787,13.867, 26,8l 0.007-0.093c0-0.54-0.347-1.007-0.827-1.18 C 22.667,5.853, 18.987,5.62, 16.007,5.62c-2.987,0-6.667,0.233-9.173,1.107C 6.353,6.9, 6.007,7.367, 6.007,7.907z M0,4.060l 0.007,0.147 C 0.347,13.593, 1.853,21.847, 2.667,22.667c 1.867,2.481, 7.833,6.333, 11.060,8.44c 0.767,0.5, 1.5,0.874, 2.273,0.893c 0.773-0.019, 1.507-0.393, 2.273-0.893 C 21.5,29, 27.467,25.147, 29.333,22.667c 0.813-0.82, 2.32-9.073, 2.66-18.46L 32,4.060c0-0.867-0.56-1.62-1.333-1.893C 26.62,0.767, 20.813,0, 16,0 C 11.186,0, 5.379,0.767, 1.333,2.167C 0.56,2.44,0,3.193,0,4.060z M 3.233,6.24c0-0.693, 0.447-1.287, 1.060-1.507C 7.493,3.627, 12.193,3.333, 16,3.333 s 8.507,0.293, 11.707,1.4c 0.613,0.22, 1.060,0.813, 1.060,1.507L 28.76,6.353C 28.487,13.787, 27.2,20.533, 26.553,21.187 c-1.481,1.96-6.201,5.106-8.753,6.773C 17.193,28.353, 16.613,28.653, 16,28.667c-0.613-0.013-1.193-0.313-1.8-0.707 c-2.553-1.667-7.273-4.813-8.753-6.773C 4.8,20.533, 3.513,13.787, 3.239,6.353L 3.233,6.24z"></path></g></svg>