<?xml version="1.0" encoding="utf-8"?> <!-- Generator: IcoMoon.io --> <!DOCTYPE svg PUBLIC "-//W3C//DTD SVG 1.1//EN" "http://www.w3.org/Graphics/SVG/1.1/DTD/svg11.dtd"> <svg fill="#000000" xmlns:xlink="http://www.w3.org/1999/xlink" xmlns="http://www.w3.org/2000/svg" width="32" height="32" viewBox="0 0 32 32"><g><path d="M 21,28c 0.552,0, 1-0.448, 1-1L 22,13 c0-0.552-0.448-1-1-1s-1,0.448-1,1l0,14 C 20,27.552, 20.448,28, 21,28zM 11,28c 0.552,0, 1-0.448, 1-1L 12,13 c0-0.552-0.448-1-1-1s-1,0.448-1,1l0,14 C 10,27.552, 10.448,28, 11,28zM 29,6l-4,0 L 25,4 c0-2.208-1.792-4-4-4L 11,0 C 8.792,0, 7,1.792, 7,4l0,2 L 3,6 L0,9c0,0.552, 0.448,1, 1,1l 3,0 l0,20 c0,1.104, 0.896,2, 2,2l 20,0 c 1.104,0, 2-0.896, 2-2L 28,10 l 3,0 c 0.552,0, 1-0.448, 1-1L 29,6z M 10,4c0-1.104, 0.896-2, 2-2l 8,0 c 1.104,0, 2,0.896, 2,2l0,2 L 10,6 L 10,4 z M 26,29 c0,0.552-0.448,1-1,1L 7,30 c-0.552,0-1-0.448-1-1L 6,10 l 20,0 L 26,29 zM 16,28c 0.552,0, 1-0.448, 1-1L 17,13 c0-0.552-0.448-1-1-1s-1,0.448-1,1l0,14 C 15,27.552, 15.448,28, 16,28z"></path></g></svg>