<?xml version="1.0" encoding="utf-8"?> <!-- Generator: IcoMoon.io --> <!DOCTYPE svg PUBLIC "-//W3C//DTD SVG 1.1//EN" "http://www.w3.org/Graphics/SVG/1.1/DTD/svg11.dtd"> <svg fill="#000000" xmlns:xlink="http://www.w3.org/1999/xlink" xmlns="http://www.w3.org/2000/svg" viewBox="0 0 32.00133514404297 32.042335510253906" height="32.042335510253906" width="32.00133514404297"><g><path d="M 28,32l-24,0 q-1.656,0 -2.829-1.171t-1.171-2.829l0-24 q0-1.656 1.171-2.829t 2.829-1.171l 14,0 l0,4 l-12,0 q-0.843,0 -1.421,0.595t-0.579,1.405l0,20 q0,0.843 0.579,1.421t 1.421,0.579l 20,0 q 0.843,0 1.421-0.579t 0.579-1.421l0-9.437 l 4-3.344l0,14.781 q0,1.656 -1.171,2.829t-2.829,1.171zM 21.749,17.72q-0.405,0.405 -1.077,0.251 t-0.672-0.595l0-5.376 q-7,0 -12,10l0-2 q0-3.624 0.939-6.376t 2.595-4.376t 3.781-2.437t 4.688-0.813l0-5.312 q0-0.437 0.672-0.611t 1.077,0.235l 9.813,7.688q 0.405,0.405 0.405,1t-0.405,1.032z"></path></g></svg>