<?xml version="1.0" encoding="utf-8"?> <!-- Generator: IcoMoon.io --> <!DOCTYPE svg PUBLIC "-//W3C//DTD SVG 1.1//EN" "http://www.w3.org/Graphics/SVG/1.1/DTD/svg11.dtd"> <svg fill="#000000" xmlns:xlink="http://www.w3.org/1999/xlink" xmlns="http://www.w3.org/2000/svg" width="32" height="32" viewBox="0 0 32 32"><g><path d="M 22.968,25.168c-0.592-0.093-0.605-1.707-0.605-1.707s 1.741-1.707, 2.12-4.005 c 1.021,0, 1.651-2.443, 0.629-3.301c 0.043-0.904, 1.312-7.099-5.112-7.099c-6.424,0-5.155,6.195-5.112,7.099 c-1.021,0.859-0.389,3.301, 0.629,3.301c 0.379,2.296, 2.12,4.005, 2.12,4.005s-0.013,1.613-0.605,1.707 C 15.123,25.469, 8,28.584, 8,32l 12,0 l 12,0 C 32,28.584, 24.877,25.469, 22.968,25.168zM 10.752,25.712c 1.379-0.848, 3.051-1.635, 4.424-2.107c-0.493-0.701-1.040-1.653-1.384-2.784 c-0.483-0.392-0.872-0.955-1.125-1.643c-0.253-0.691-0.347-1.464-0.269-2.179c 0.056-0.512, 0.203-0.989, 0.427-1.408 c-0.136-1.456-0.232-4.315, 1.64-6.397c 0.725-0.808, 1.643-1.389, 2.741-1.741C 17.005,5.429, 15.979,3.056, 12,3.056 c-6.424,0-5.155,6.195-5.112,7.099c-1.021,0.859-0.389,3.301, 0.629,3.301c 0.379,2.296, 2.12,4.005, 2.12,4.005 s-0.013,1.613-0.605,1.707C 7.123,19.469,0,22.584,0,26l 10.299,0 C 10.448,25.904, 10.597,25.808, 10.752,25.712z"></path></g></svg>