<?xml version="1.0" encoding="utf-8"?> <!-- Generator: IcoMoon.io --> <!DOCTYPE svg PUBLIC "-//W3C//DTD SVG 1.1//EN" "http://www.w3.org/Graphics/SVG/1.1/DTD/svg11.dtd"> <svg fill="#000000" xmlns:xlink="http://www.w3.org/1999/xlink" xmlns="http://www.w3.org/2000/svg" width="32" height="32" viewBox="0 0 32 32"><g><path d="M 11.365,22.565l 1.291-1.808l-1.413-1.413l-1.808,1.291c-0.336-0.187-0.693-0.336-1.072-0.443L 8,18L 6,18 l-0.365,2.189c-0.376,0.107-0.736,0.256-1.072,0.443L 2.757,19.344L 1.344,20.757l 1.291,1.808 c-0.187,0.336-0.336,0.693-0.443,1.072L0,24l0,2 l 2.189,0.365c 0.107,0.376, 0.256,0.736, 0.443,1.072L 1.344,29.243l 1.413,1.413 l 1.808-1.291c 0.336,0.187, 0.693,0.336, 1.072,0.443L 6,32l 2,0 l 0.365-2.189c 0.376-0.107, 0.736-0.256, 1.072-0.443l 1.808,1.291 l 1.413-1.413l-1.291-1.808c 0.187-0.336, 0.336-0.693, 0.443-1.072L 14,26l0-2 l-2.189-0.365 C 11.704,23.259, 11.555,22.899, 11.365,22.565z M 7,27c-1.104,0-2-0.896-2-2s 0.896-2, 2-2s 2,0.896, 2,2 S 8.104,27, 7,27zM 32,12l0-2 l-2.107-0.384c-0.040-0.251-0.088-0.499-0.147-0.744l 1.8-1.16L 30.781,5.867l-2.091,0.453 c-0.131-0.216-0.272-0.427-0.421-0.629l 1.219-1.76l-1.413-1.413l-1.76,1.219c-0.203-0.149-0.413-0.291-0.629-0.421 l 0.453-2.091L 24.285,0.453l-1.16,1.8c-0.245-0.059-0.491-0.109-0.744-0.147L 22,0l-2,0 l-0.384,2.107 c-0.251,0.040-0.499,0.088-0.744,0.147L 17.715,0.453L 15.867,1.221l 0.453,2.091c-0.216,0.131-0.427,0.272-0.629,0.421 l-1.76-1.219l-1.413,1.413l 1.219,1.76c-0.149,0.203-0.291,0.413-0.421,0.629l-2.091-0.453l-0.765,1.848l 1.8,1.16 c-0.059,0.245-0.109,0.491-0.147,0.744L 10,10l0,2 l 2.107,0.384c 0.040,0.251, 0.088,0.499, 0.147,0.744l-1.8,1.16 l 0.765,1.848l 2.091-0.453c 0.131,0.216, 0.272,0.427, 0.421,0.629l-1.219,1.76l 1.413,1.413l 1.76-1.219 c 0.203,0.149, 0.413,0.291, 0.629,0.421l-0.453,2.091l 1.848,0.765l 1.16-1.8c 0.245,0.059, 0.491,0.109, 0.744,0.147L 20,22l 2,0 l 0.384-2.107c 0.251-0.040, 0.499-0.088, 0.744-0.147l 1.16,1.8l 1.848-0.765l-0.453-2.091 c 0.216-0.131, 0.427-0.272, 0.629-0.421l 1.76,1.219l 1.413-1.413l-1.219-1.76c 0.149-0.203, 0.291-0.413, 0.421-0.629 l 2.091,0.453l 0.765-1.848l-1.8-1.16c 0.059-0.245, 0.109-0.491, 0.147-0.744L 32,12z M 21,15.349 c-2.403,0-4.349-1.947-4.349-4.349c0-2.403, 1.947-4.349, 4.349-4.349s 4.349,1.947, 4.349,4.349C 25.349,13.403, 23.403,15.349, 21,15.349z"></path></g></svg>