<?xml version="1.0" encoding="utf-8"?> <!-- Generator: IcoMoon.io --> <!DOCTYPE svg PUBLIC "-//W3C//DTD SVG 1.1//EN" "http://www.w3.org/Graphics/SVG/1.1/DTD/svg11.dtd"> <svg fill="#000000" xmlns:xlink="http://www.w3.org/1999/xlink" xmlns="http://www.w3.org/2000/svg" data-author="Brankic1979" data-authorlink="http://brankic1979.com" data-license="Custom" data-licenselink="http://brankic1979.com/icons/" viewBox="0 0 32 32" height="32" width="32"><g><path d="M 27,29l-1.999-0.062L 25.001,31 l-3,0 l0-2 L 10.063,29 l-0.062,2l-3,0 l0-1.938 L 5,29 c-1.104,0-2-0.896-2-2L 3,3 c0-1.104, 0.896-2, 2-2l 22,0 c 1.104,0, 2,0.896, 2,2l0,24 C 29,28.104, 28.104,29, 27,29z M 26,4L 6,4 l0,3.958 L 5.021,7.938 l0,3.083 L 6,11.021 l0,7.917 L 5,18.938 L 5,22 l 1,0 l0,4 l 20,0 L 26,4 z M 25,25L 7,25 l0-3 l 1,0 l0-3.062 L 7,18.938 L 7,11 l 1,0 l 0.021-3.042L 7,7.958 L 7,5 l 18,0 L 25,25 z M 14.562,10.562c-2.209,0-4,1.791-4,4 s 1.791,4, 4,4c 2.21,0, 4-1.791, 4-4S 16.772,10.562, 14.562,10.562z M 23.5,11.518c0-0.553-0.447-1-1-1c-0.552,0-1,0.447-1,1 c0,0.366, 0.207,0.673, 0.5,0.847l0,5.289 c-0.293,0.174-0.5,0.48-0.5,0.847c0,0.552, 0.448,1, 1,1c 0.553,0, 1-0.448, 1-1 c0-0.394-0.232-0.726-0.562-0.889l0-5.205 C 23.268,12.243, 23.5,11.911, 23.5,11.518z M 14.5,16.25c-0.828,0-1.5-0.672-1.5-1.5 c0-0.829, 0.672-1.5, 1.5-1.5c 0.829,0, 1.5,0.671, 1.5,1.5C 16,15.578, 15.329,16.25, 14.5,16.25z"></path></g></svg>