<?xml version="1.0" encoding="utf-8"?> <!-- Generator: IcoMoon.io --> <!DOCTYPE svg PUBLIC "-//W3C//DTD SVG 1.1//EN" "http://www.w3.org/Graphics/SVG/1.1/DTD/svg11.dtd"> <svg fill="#000000" version="1.1" xmlns="http://www.w3.org/2000/svg" xmlns:xlink="http://www.w3.org/1999/xlink" x="0px" y="0px" width="32" height="32" viewBox="0 0 32 32" enable-background="new 0 0 16 16" xml:space="preserve"> <g><path d="M 19.692,17.332c-0.14-0.208-0.376-0.334-0.626-0.334L 18.316,16.998 c-0.416,0-0.75,0.336-0.75,0.75l0,4.5 c0,0.414, 0.336,0.75, 0.75,0.75l 3,0 c 0.414,0, 0.75-0.336, 0.75-0.75l0-1.126 c0-0.148-0.042-0.292-0.126-0.414L 19.692,17.332z M 21.316,22.248l-3,0 l0-4.5 l 0.75,0 l 2.25,3.376L 21.316,22.248 z M 24.688,20.25l-3-4.5c-0.418-0.628-1.118-1.002-1.872-1.002l-3,0 l0-1.5 c0-1.24-1.010-2.25-2.25-2.25L 3.316,10.998 c-1.24,0-2.25,1.010-2.25,2.25l0,8.25 c0,1.24, 1.010,2.25, 2.25,2.25l0,0l0,2.25 c0,1.24, 1.010,2.25, 2.25,2.25l 0.856,0 c 0.336,1.292, 1.5,2.25, 2.894,2.25c 1.392,0, 2.558-0.958, 2.892-2.25l 3.962,0 c 0.338,1.292, 1.498,2.25, 2.894,2.25c 1.392,0, 2.556-0.958, 2.892-2.25l 0.862,0 c 1.236,0, 2.25-1.010, 2.25-2.25l0-4.5 C 25.066,21.050, 24.938,20.622, 24.688,20.25z M 3.316,22.248c-0.414,0-0.75-0.336-0.75-0.75L 2.566,13.248 c0-0.414, 0.336-0.75, 0.75-0.75l 11.25,0 c 0.414,0, 0.75,0.336, 0.75,0.75l0,1.5 l0,1.5 l0,5.25 c0,0.414-0.336,0.75-0.75,0.75L 3.316,22.248 z M 9.316,28.998c-0.828,0-1.5-0.672-1.5-1.5s 0.672-1.5, 1.5-1.5c 0.828,0, 1.5,0.672, 1.5,1.5S 10.144,28.998, 9.316,28.998z M 19.066,28.998c-0.828,0-1.5-0.672-1.5-1.5s 0.672-1.5, 1.5-1.5s 1.5,0.672, 1.5,1.5S 19.894,28.998, 19.066,28.998z M 23.566,25.998c0,0.414-0.336,0.75-0.75,0.75l-0.86,0 c-0.336-1.292-1.5-2.25-2.89-2.25c-1.396,0-2.56,0.958-2.896,2.25 L 12.208,26.748 c-0.336-1.292-1.5-2.25-2.892-2.25c-1.394,0-2.56,0.958-2.894,2.25L 5.566,26.748 c-0.414,0-0.75-0.336-0.75-0.75l0-2.25 l 9.75,0 c 1.24,0, 2.25-1.010, 2.25-2.25L 16.816,16.248 l 3,0 c 0.25,0, 0.484,0.126, 0.626,0.334l 3,4.5c 0.082,0.126, 0.126,0.268, 0.126,0.416 L 23.566,25.998L 23.566,25.998zM 22.818,12.004l 3,0 l0,3 l-3,0 L 22.818,12.004 z M 28.818,1.502c 0.828,0, 1.5,0.672, 1.5,1.5l0,4.5 l-4.5,3.002l-3,0 L 22.818,9.002 l 4.5-3l0-1.5 l-7.5,0 l0-3 L 28.818,1.502 z"></path></g></svg>