<?xml version="1.0" encoding="utf-8"?> <!-- Generator: IcoMoon.io --> <!DOCTYPE svg PUBLIC "-//W3C//DTD SVG 1.1//EN" "http://www.w3.org/Graphics/SVG/1.1/DTD/svg11.dtd"> <svg fill="#000000" version="1.1" xmlns="http://www.w3.org/2000/svg" xmlns:xlink="http://www.w3.org/1999/xlink" x="0px" y="0px" width="32" height="32" viewBox="0 0 32 32" enable-background="new 0 0 16 16" xml:space="preserve"> <g><path d="M 12.938,6.758L 1.066,18.628l 2.968,0 l0,11.872 l 17.804,0 L 21.838,18.628 l 2.968,0 L 12.938,6.758z M 18.872,27.534L 14.418,27.534 l0-4.456 L 11.452,23.078 l0,4.456 L 7.002,27.534 L 7.002,16.892 l 5.936-4.198l 5.934,4.198L 18.872,27.534 zM 27.418,10.348c-0.254-0.040-0.258-0.726-0.258-0.726s 0.74-0.726, 0.902-1.706 c 0.436,0, 0.704-1.040, 0.266-1.404c 0.020-0.386, 0.558-3.022-2.176-3.022s-2.196,2.636-2.174,3.022 c-0.436,0.366-0.166,1.404, 0.266,1.404c 0.162,0.98, 0.906,1.706, 0.906,1.706s-0.008,0.686-0.26,0.726 c-0.812,0.13-3.846,1.454-3.846,2.91l 5.108,0 l 5.11,0 C 31.262,11.802, 28.23,10.478, 27.418,10.348z M 22.216,10.582 c 0.586-0.36, 1.298-0.694, 1.882-0.898c-0.21-0.3-0.444-0.704-0.588-1.184c-0.206-0.168-0.372-0.408-0.478-0.7 c-0.11-0.294-0.146-0.626-0.118-0.93c 0.026-0.216, 0.088-0.418, 0.182-0.598c-0.056-0.62-0.098-1.836, 0.702-2.722 c 0.304-0.344, 0.698-0.592, 1.166-0.742c-0.084-0.862-0.524-1.872-2.214-1.872c-2.734,0-2.196,2.638-2.176,3.022 c-0.438,0.366-0.166,1.404, 0.266,1.404c 0.162,0.978, 0.902,1.708, 0.902,1.708s-0.004,0.686-0.258,0.726 C 20.672,7.922, 17.64,9.25, 17.64,10.704l 4.382,0 C 22.086,10.662, 22.152,10.622, 22.216,10.582z"></path></g></svg>