<?xml version="1.0" encoding="utf-8"?> <!-- Generator: IcoMoon.io --> <!DOCTYPE svg PUBLIC "-//W3C//DTD SVG 1.1//EN" "http://www.w3.org/Graphics/SVG/1.1/DTD/svg11.dtd"> <svg fill="#000000" xmlns:xlink="http://www.w3.org/1999/xlink" xmlns="http://www.w3.org/2000/svg" width="32" height="32" viewBox="0 0 32 32"><g><path d="M 32,12 L 20,12 L 24.485,7.515 C 22.219,5.248 19.205,4 16,4 C 12.795,4 9.781,5.248 7.515,7.515 C 5.248,9.781 4,12.795 4,16 C 4,19.205 5.248,22.219 7.515,24.485 C 9.781,26.752 12.795,28 16,28 C 19.205,28 22.219,26.752 24.485,24.485 C 24.675,24.296 24.856,24.101 25.032,23.901 L 28.040,26.536 C 25.109,29.885 20.8,32 16,32 C 7.163,32 0,24.837 0,16 C 0,7.163 7.163,0 16,0 C 20.419,0 24.419,1.792 27.312,4.688 L 32,0 L 32,12 Z"></path></g></svg>