<?xml version="1.0" encoding="utf-8"?> <!-- Generator: IcoMoon.io --> <!DOCTYPE svg PUBLIC "-//W3C//DTD SVG 1.1//EN" "http://www.w3.org/Graphics/SVG/1.1/DTD/svg11.dtd"> <svg fill="#000000" xmlns:xlink="http://www.w3.org/1999/xlink" xmlns="http://www.w3.org/2000/svg" viewBox="0 0 32.292999267578125 32.292999267578125" height="32.292999267578125" width="32.292999267578125"><g><path d="M 31.12,31.12c-1.173,1.173-3.077,1.173-4.251,0l-5.304-5.304 c-2.181,1.4-4.757,2.232-7.541,2.232C 6.28,28.048,0,21.771,0,14.024S 6.28,0, 14.024,0 c 7.747,0, 14.024,6.277, 14.024,14.024c0,2.781-0.835,5.36-2.232,7.541l 5.304,5.304 C 32.293,28.045, 32.293,29.947, 31.12,31.12z M 14.024,4.008c-5.531,0-10.016,4.485-10.016,10.016 s 4.485,10.016, 10.016,10.016c 5.533,0, 10.016-4.485, 10.016-10.016S 19.557,4.008, 14.024,4.008z"></path></g></svg>