<?xml version="1.0" encoding="utf-8"?> <!-- Generator: IcoMoon.io --> <!DOCTYPE svg PUBLIC "-//W3C//DTD SVG 1.1//EN" "http://www.w3.org/Graphics/SVG/1.1/DTD/svg11.dtd"> <svg fill="#000000" xmlns:xlink="http://www.w3.org/1999/xlink" xmlns="http://www.w3.org/2000/svg" viewBox="0 0 32 32" height="32" width="32"><g><path d="M 24.832,11.445C 24.645,11.168, 24.333,11, 24,11l-1,0 c-0.552,0-1,0.448-1,1l0,6 c0,0.552, 0.448,1, 1,1l 4,0 c 0.552,0, 1-0.448, 1-1l0-1.501 c0-0.197-0.059-0.392-0.168-0.555L 24.832,11.445z M 27,18l-4,0 l0-6 l 1,0 l 3,4.501L 27,18 zM 31.496,15.336l-4-6C 26.939,8.499, 26.005,8, 25,8l-4,0 L 21,6 c0-1.653-1.347-3-3-3L 3,3 C 1.347,3,0,4.347,0,6l0,11 c0,1.653, 1.347,3, 3,3l0,0 l0,3 c0,1.653, 1.347,3, 3,3l 1.141,0 c 0.448,1.72, 2,3, 3.859,3c 1.856,0, 3.411-1.28, 3.856-3l 5.283,0 c 0.448,1.72, 2,3, 3.859,3c 1.856,0, 3.411-1.28, 3.856-3L 29,26 c 1.653,0, 3-1.347, 3-3l0-6 C 32,16.405, 31.827,15.829, 31.496,15.336z M 3,18 c-0.552,0-1-0.448-1-1L 2,6 c0-0.552, 0.448-1, 1-1l 15,0 c 0.552,0, 1,0.448, 1,1l0,2 l0,2 l0,7 c0,0.552-0.448,1-1,1L 3,18 z M 11,27 c-1.104,0-2-0.896-2-2s 0.896-2, 2-2c 1.104,0, 2,0.896, 2,2S 12.104,27, 11,27z M 24,27c-1.104,0-2-0.896-2-2s 0.896-2, 2-2 c 1.104,0, 2,0.896, 2,2S 25.104,27, 24,27z M 30,23c0,0.552-0.448,1-1,1l-1.144,0 c-0.448-1.72-2-3-3.856-3c-1.859,0-3.413,1.28-3.859,3 l-5.283,0 c-0.448-1.72-2-3-3.856-3c-1.859,0-3.413,1.28-3.859,3L 6,24 c-0.552,0-1-0.448-1-1l0-3 l 13,0 c 1.653,0, 3-1.347, 3-3l0-7 l 4,0 c 0.333,0, 0.645,0.168, 0.832,0.445l 4,6C 29.941,16.608, 30,16.803, 30,17L 30,23 z"></path></g></svg>