<?xml version="1.0" encoding="utf-8"?> <!-- Generator: IcoMoon.io --> <!DOCTYPE svg PUBLIC "-//W3C//DTD SVG 1.1//EN" "http://www.w3.org/Graphics/SVG/1.1/DTD/svg11.dtd"> <svg fill="#000000" xmlns:xlink="http://www.w3.org/1999/xlink" xmlns="http://www.w3.org/2000/svg" data-author="WebHostingHub" data-authorlink="http://www.webhostinghub.com" data-license="CC BY 3.0" data-licenselink="http://creativecommons.org/licenses/by/3.0/" viewBox="0 0 32.00100326538086 32" height="32" width="32.00100326538086"><g><path d="M 32,8q-2.844,0 -3.781,0.125q 1.813-1.094 2.781-4.125q-0.281,0.188 -0.922,0.594t-1.031,0.641t-0.984,0.484t-1.125,0.344q-1.938-2.063 -4.781-2.063q-2.875,0 -4.516,1.203t-1.641,3.797q0,0.125 -0.031,0.844t-0.031,1.328t 0.063,0.828q-4.188-0.219 -7.406-1.656t-5.594-4.344q-1,1.719 -1,3q0,1.781 0.5,2.953t 1.75,2.016q-1.25,0.031 -2.25,0.031 q0,4.75 4.563,5.656q-0.844,0.25 -1.75,0.25q-0.625,0 -1.219-0.125q 0.594,1.906 2.391,3.047t 4.016,1.172q-0.719,0.719 -1.688,1.156t-2.219,0.609t-2.031,0.203t-2.063,0.031q-0.125,0 -0.906,0.047t-1.094,0.016q 0.844,1.625 3.453,2.781t 6.609,1.156q 3.5,0 6.484-1.141t 5.063-3.047t 3.547-4.375t 2.156-5.125t 0.688-5.313q0-0.094 0.297-0.172t 0.766-0.234t 0.984-0.422t 1.063-0.828 t 0.891-1.344z"></path></g></svg>