<?xml version="1.0" encoding="utf-8"?> <!-- Generator: IcoMoon.io --> <!DOCTYPE svg PUBLIC "-//W3C//DTD SVG 1.1//EN" "http://www.w3.org/Graphics/SVG/1.1/DTD/svg11.dtd"> <svg width="32" height="32" viewBox="0 0 32 32" data-licenselink="http://brankic1979.com/icons/" data-license="Custom" data-authorlink="http://brankic1979.com" data-author="Brankic1979" xmlns="http://www.w3.org/2000/svg" xmlns:xlink="http://www.w3.org/1999/xlink" fill="#000000"><g><path d="M 12.547,23.101c-0.86,0.875-1.293,1.944-1.293,3.212c0,1.37, 0.489,2.521, 1.467,3.453c 0.902,0.86, 1.986,1.29, 3.254,1.29 c 1.295,0, 2.414-0.468, 3.346-1.407s 1.397-2.059, 1.397-3.356c0-1.253-0.453-2.344-1.355-3.277c-0.902-0.947-1.991-1.42-3.26-1.42 C 14.695,21.594, 13.509,22.096, 12.547,23.101L 12.547,23.101z M 12,3.042c-0.743,1.121-1.111,2.513-1.111,4.174 c0,1.355, 0.229,2.849, 0.686,4.48s 1.081,3.16, 1.867,4.589c 1.064,1.937, 1.889,2.907, 2.471,2.907c 0.597,0, 1.385-0.758, 2.359-2.272 c 0.86-1.34, 1.546-2.864, 2.064-4.577s 0.775-3.311, 0.775-4.798c0-2.242-0.607-3.978-1.815-5.201C 18.394,1.412, 17.296,0.944, 16,0.944 C 14.252,0.944, 12.917,1.645, 12,3.042L 12,3.042z"></path></g></svg>